<?xml version="1.0" encoding="UTF-8" standalone="no"?>
<!-- Generator: Adobe Illustrator 16.0.0, SVG Export Plug-In . SVG Version: 6.00 Build 0)  -->

<svg
   xmlns:dc="http://purl.org/dc/elements/1.1/"
   xmlns:cc="http://creativecommons.org/ns#"
   xmlns:rdf="http://www.w3.org/1999/02/22-rdf-syntax-ns#"
   xmlns:svg="http://www.w3.org/2000/svg"
   xmlns="http://www.w3.org/2000/svg"
   xmlns:sodipodi="http://sodipodi.sourceforge.net/DTD/sodipodi-0.dtd"
   xmlns:inkscape="http://www.inkscape.org/namespaces/inkscape"
   version="1.1"
   id="Layer_1"
   x="0px"
   y="0px"
   width="594px"
   height="153.278px"
   viewBox="0 0 594 153.278"
   enable-background="new 0 0 594 153.278"
   xml:space="preserve"
   sodipodi:docname="ngd_logo.svg"
   inkscape:version="0.92.3 (2405546, 2018-03-11)"><metadata
   id="metadata33"><rdf:RDF><cc:Work
       rdf:about=""><dc:format>image/svg+xml</dc:format><dc:type
         rdf:resource="http://purl.org/dc/dcmitype/StillImage" /><dc:title></dc:title></cc:Work></rdf:RDF></metadata><defs
   id="defs31" /><sodipodi:namedview
   pagecolor="#ffffff"
   bordercolor="#666666"
   borderopacity="1"
   objecttolerance="10"
   gridtolerance="10"
   guidetolerance="10"
   inkscape:pageopacity="0"
   inkscape:pageshadow="2"
   inkscape:window-width="3706"
   inkscape:window-height="2049"
   id="namedview29"
   showgrid="false"
   inkscape:zoom="4.1550301"
   inkscape:cx="292.17255"
   inkscape:cy="18.092161"
   inkscape:window-x="134"
   inkscape:window-y="55"
   inkscape:window-maximized="1"
   inkscape:current-layer="Layer_1" />
<path
   fill="#1294DC"
   stroke="#1294DC"
   stroke-width="0.216"
   stroke-miterlimit="2.6131"
   d="M46.712,60.979v3.459l3.098-0.694  c5.129-1.151,10.354-3.771,15.939-4.67l2.237-0.505C71.165,35.018,97.53,17.26,129.318,17.26c25.133,0,47.534,11.238,57.066,28.631  l0.595,1.086l1.229,0.161c6.231,0.812,12.318,1.914,18.088,3.275l4.297,1.013l-1.43-4.177  c-9.459-27.652-42.294-46.966-79.846-46.966C84.425,0.283,47.58,27.181,46.712,60.979L46.712,60.979z"
   id="path2"
   style="fill:#f9fcfe;fill-opacity:1" />
<path
   fill="#1294DC"
   d="M227.775,64.325c-18.501-9.201-43.047-14.27-69.118-14.274l-7.979-0.005h-13.246c0,0,0,40.615,0,47.373  c-5.641-5.803-19.87-20.444-19.87-20.444H83.3v23.738h12.753c0,14.415,0,30.374,0,32.118c-41.772-4.174-71.839-19.624-71.839-37.204  c0-17.988,31.488-38.47,74.76-42.208l2.15-0.19v-0.797h-2.439c-26.077,0-50.633,5.067-69.143,14.268  C10.492,76.169,0,88.959,0,102.713c0,13.756,10.492,26.548,29.543,36.018C48.052,147.934,72.606,153,98.686,153  c0.02,0,21.031-0.002,21.031-0.002s0-40.717,0-47.476c5.641,5.803,19.87,20.442,19.87,20.442h21.509c0,0,0-55.066,0-55.762  c41.863,4.149,71.994,19.605,71.994,37.218c0,17.989-31.349,38.377-74.62,42.117l-2.287,0.222l0,0.86h2.439  c26.077,0,50.632-5.066,69.141-14.269c19.051-9.472,29.542-22.261,29.542-36.016C257.307,86.583,246.82,73.795,227.775,64.325  L227.775,64.325z"
   id="path4"
   style="fill:#f9fcfe;fill-opacity:1" />
<polygon
   fill-rule="evenodd"
   clip-rule="evenodd"
   fill="#8F8F8C"
   points="279,0 288,0 288,153.183 279,153.183 279,0 "
   id="polygon6"
   style="fill:#ffffff;fill-opacity:0.44781145" />
<path
   fill="#8F8F8C"
   d="M306.159,136.718c3.039,1.32,7.884,2.221,12.893,2.221c11.415,0,17.984-4.2,17.984-10.561  c0-4.62-3.613-7.86-11.332-10.2c-5.256-1.62-6.98-2.58-6.98-4.439c0-1.8,1.971-3.181,5.666-3.181c3.449,0,6.652,0.96,8.622,1.74  l2.3-6.24c-2.628-1.02-6.651-1.859-11.332-1.859c-10.183,0-16.752,4.56-16.752,10.56c0,3.66,3.12,7.2,11.66,9.721  c5.01,1.56,6.57,2.64,6.57,4.68s-2.054,3.359-6.324,3.359c-3.777,0-8.294-1.199-10.675-2.22L306.159,136.718L306.159,136.718z"
   id="path8"
   style="fill:#ffffff;fill-opacity:0.44781145" />
<path
   fill="#8F8F8C"
   d="M363.019,122.378c-0.657,2.101-1.396,4.44-1.89,6.24h-0.246c-0.574-1.86-1.396-4.2-2.135-6.24l-6.733-17.46  h-13.304l15.356,30.72c0.328,0.66,0.493,1.141,0.493,1.5c0,0.66-2.054,4.08-6.077,6.181c-2.136,1.08-4.435,2.04-6.405,2.46  l3.038,7.5c2.71-0.36,7.391-1.561,11.825-4.681c5.174-3.779,9.033-9.659,14.125-20.459l10.347-23.221h-12.646L363.019,122.378  L363.019,122.378z"
   id="path10"
   style="fill:#ffffff;fill-opacity:0.44781145" />
<path
   fill="#8F8F8C"
   d="M382.678,136.718c3.038,1.32,7.883,2.221,12.893,2.221c11.414,0,17.984-4.2,17.984-10.561  c0-4.62-3.614-7.86-11.333-10.2c-5.255-1.62-6.979-2.58-6.979-4.439c0-1.8,1.971-3.181,5.666-3.181c3.448,0,6.651,0.96,8.622,1.74  l2.3-6.24c-2.628-1.02-6.651-1.859-11.333-1.859c-10.183,0-16.752,4.56-16.752,10.56c0,3.66,3.12,7.2,11.661,9.721  c5.009,1.56,6.569,2.64,6.569,4.68s-2.053,3.359-6.323,3.359c-3.777,0-8.294-1.199-10.676-2.22L382.678,136.718L382.678,136.718z"
   id="path12"
   style="fill:#ffffff;fill-opacity:0.44781145" />
<path
   fill="#8F8F8C"
   d="M416.051,104.918v6.54h5.994v15.42c0,3.72,0.247,12.061,13.385,12.061c3.532,0,6.488-0.301,8.13-0.78  l-0.164-6.78c-1.231,0.181-2.217,0.3-3.941,0.3c-3.695,0-5.42-1.68-5.42-5.699v-14.521h10.101v-6.54h-10.101v-8.7l-11.989,2.58v6.12  H416.051L416.051,104.918z"
   id="path14"
   style="fill:#ffffff;fill-opacity:0.44781145" />
<path
   fill="#8F8F8C"
   d="M486.377,124.298c0.246-0.96,0.328-2.22,0.328-3.54c0-10.8-7.227-16.56-18.312-16.56  c-13.386,0-20.94,8.28-20.94,17.88c0,10.38,8.047,16.86,22.172,16.86c5.666,0,11.004-0.721,14.781-1.921l-1.725-6.119  c-3.121,0.779-6.651,1.38-11.168,1.38c-6.569,0-12.154-2.28-12.482-7.98H486.377L486.377,124.298z M459.031,118.118  c0.328-3.3,2.792-7.74,8.623-7.74c5.994,0,7.883,4.261,7.801,7.74H459.031L459.031,118.118z"
   id="path16"
   style="fill:#ffffff;fill-opacity:0.44781145" />
<path
   fill="#8F8F8C"
   d="M528.865,109.838c-1.807-3.42-6.077-5.58-11.661-5.58c-6.815,0-10.839,2.76-12.974,5.16h-0.247l-0.575-4.5  h-10.347c0.164,2.95,0.329,6.13,0.329,10.04v23.38h11.906v-20.14c0-4.46,3.941-6.74,7.309-6.74c4.763,0,6.487,3.181,6.487,7.14  v19.74H531v-20.279c0-4.681,3.778-6.601,7.145-6.601c4.846,0,6.651,3.181,6.651,7.98v18.899h11.907v-20.279  c0-9.66-6.158-13.801-14.124-13.801c-5.091,0-9.772,1.5-13.55,5.58H528.865L528.865,109.838z"
   id="path18"
   style="fill:#ffffff;fill-opacity:0.44781145" />
<path
   fill="#8F8F8C"
   d="M562.896,136.718c3.038,1.32,7.884,2.221,12.893,2.221c11.414,0,17.984-4.2,17.984-10.561  c0-4.62-3.613-7.86-11.333-10.2c-5.256-1.62-6.98-2.58-6.98-4.439c0-1.8,1.972-3.181,5.667-3.181c3.449,0,6.651,0.96,8.622,1.74  l2.3-6.24c-2.628-1.02-6.651-1.859-11.333-1.859c-10.183,0-16.752,4.56-16.752,10.56c0,3.66,3.121,7.2,11.66,9.721  c5.01,1.56,6.57,2.64,6.57,4.68s-2.053,3.359-6.323,3.359c-3.777,0-8.294-1.199-10.675-2.22L562.896,136.718L562.896,136.718z"
   id="path20"
   style="fill:#ffffff;fill-opacity:0.44781145" />
<path
   fill="#1294DC"
   d="M398.792,86.872h-23.42l-42.475-53.68c-2.478-3.131-4.219-5.49-5.175-7.076h-0.271  c0.368,3.01,0.564,7.625,0.564,13.807v46.95h-21.924V1.451h25.014l40.881,51.992c1.864,2.358,3.581,4.677,5.175,6.974h0.294  c-0.392-1.972-0.588-5.896-0.588-11.732V1.451h21.924V86.872L398.792,86.872z"
   id="path22"
   style="fill:#f9fcfe;fill-opacity:1" />
<path
   fill="#1294DC"
   d="M494.74,81.158c-10.055,4.799-22.562,7.198-37.521,7.198c-16.554,0-29.625-3.802-39.189-11.407  c-9.539-7.605-14.321-18.076-14.321-31.415c0-13.42,5.224-24.359,15.67-32.818c10.423-8.479,24.328-12.708,41.666-12.708  c10.913,0,20.551,1.261,28.864,3.762v18.056c-7.945-3.823-17.657-5.714-29.158-5.714c-9.638,0-17.461,2.583-23.519,7.768  c-6.082,5.185-9.099,12.098-9.099,20.76c0,8.764,2.723,15.555,8.143,20.374c5.444,4.798,12.776,7.198,22.022,7.198  c5.566,0,9.98-0.65,13.218-1.952V53.565h-20.6V38.193h43.823V81.158L494.74,81.158z"
   id="path24"
   style="fill:#f9fcfe;fill-opacity:1" />
<path
   fill="#1294DC"
   d="M502.601,86.872V1.451h36.516C575.705,1.451,594,15.318,594,43.094c0,13.298-5.003,23.912-14.984,31.862  c-9.98,7.95-23.272,11.916-39.899,11.916H502.601L502.601,86.872z M525.824,17.107v54.148h11.502  c10.055,0,17.927-2.501,23.665-7.503c5.714-5.002,8.583-11.814,8.583-20.435c0-8.133-2.845-14.539-8.51-19.194  c-5.689-4.677-13.635-7.016-23.886-7.016H525.824L525.824,17.107z"
   id="path26"
   style="fill:#f9fcfe;fill-opacity:1" />
</svg>